<svg width="201" height="60" viewBox="0 0 201 60" fill="none" xmlns="http://www.w3.org/2000/svg">
<path d="M63.887 15.717C63.887 15.717 86.1205 0 118.464 0C150.195 0 143.376 15.717 143.376 15.717L126.611 15.6856C126.611 15.6856 134.435 6.1017 113.742 6.1017C85.4034 6.1017 63.9244 15.717 63.9244 15.717H63.887Z" fill="#FF9C00"/>
<path d="M141.527 44.283C141.527 44.283 119.294 60 86.9498 60C55.2222 60 62.0382 44.283 62.0382 44.283L78.8034 44.3144C78.8034 44.3144 70.9794 53.8983 91.6724 53.8983C120.011 53.8983 141.493 44.283 141.493 44.283H141.527Z" fill="#1A2C4B"/>
<path d="M13.2981 29.6089C12.6271 29.366 11.9216 29.1689 11.1959 29.0175C10.4674 28.8661 9.69278 28.7719 8.89801 28.7319C8.11187 28.6862 7.3603 28.6405 6.64039 28.5862C5.92337 28.5348 5.22938 28.4748 4.57859 28.4091C3.05527 28.252 2.87961 27.4721 2.87961 26.8979C2.87961 26.6209 2.95448 26.3923 3.10998 26.2009C3.277 25.9924 3.50161 25.821 3.77517 25.6867C4.0689 25.5439 4.40293 25.4354 4.76576 25.3582C5.14299 25.2783 5.52598 25.2183 5.90033 25.1783C6.27756 25.1383 6.64327 25.1154 6.98307 25.1069C7.33438 25.0983 7.61946 25.0954 7.84407 25.0954C8.83754 25.0954 9.79933 25.2011 10.7035 25.4125C11.6048 25.621 12.4486 25.9324 13.2088 26.3352L13.3643 26.418L15.6737 24.8069L15.3253 24.5755C14.2541 23.8614 13.0648 23.3215 11.7834 22.9701C10.5077 22.6188 9.18309 22.4417 7.84407 22.4417C7.40637 22.4417 6.91396 22.4616 6.37835 22.4988C5.84274 22.5359 5.28697 22.6102 4.72833 22.7216C4.1668 22.833 3.6168 22.9873 3.09271 23.1815C2.55422 23.3815 2.06756 23.6471 1.65002 23.9728C1.22384 24.3042 0.875403 24.7126 0.613358 25.1868C0.348433 25.6696 0.213092 26.2466 0.213092 26.9037C0.213092 28.7176 0.935875 29.8974 2.3584 30.4087C3.69167 30.9 5.17755 31.1914 6.77285 31.2743C7.56187 31.32 8.31921 31.3685 9.02183 31.4257C9.72446 31.4799 10.4184 31.5428 11.0779 31.6085C12.6012 31.7656 12.7769 32.5397 12.7769 33.111C12.7769 33.3967 12.6991 33.6252 12.5436 33.8166C12.3708 34.0252 12.1462 34.1994 11.8698 34.3308C11.5761 34.4736 11.242 34.5851 10.8763 34.665C10.4991 34.7479 10.119 34.8107 9.74462 34.8507C9.37027 34.8907 9.01031 34.9136 8.67628 34.9164C8.3336 34.9193 8.05716 34.9221 7.84695 34.9221C6.87652 34.9221 5.91473 34.8164 4.99037 34.6108C4.07178 34.4051 3.22229 34.0909 2.46207 33.6738L2.30369 33.5795L0 35.2021L0.334035 35.4335C1.30159 36.1019 2.44191 36.6304 3.72622 37.0017C5.00477 37.3731 6.39275 37.5588 7.84407 37.5588C8.27601 37.5588 8.76267 37.5416 9.2954 37.5074C9.83676 37.4731 10.3897 37.3988 10.9425 37.2902C11.4983 37.1788 12.0454 37.0246 12.5638 36.8303C13.0936 36.6304 13.5774 36.3647 13.9949 36.0419C14.4211 35.7106 14.7724 35.3021 15.0373 34.8279C15.308 34.3451 15.4491 33.7652 15.4549 33.0996C15.4549 31.3114 14.7292 30.1373 13.2981 29.6089Z" fill="#1A2C4B"/>
<path d="M39.56 33.1622V37.5613H37.933V33.1622L33.0435 26.2463H35.039L38.7566 31.5053L42.4483 26.2463H44.4525L39.56 33.1622Z" fill="#1A2C4B"/>
<path d="M71.8118 26.2434H73.4474V37.5613H71.8118L63.6682 28.6487V37.5613H62.0413V26.2434H63.6682L71.8118 35.156V26.2434Z" fill="#1A2C4B"/>
<path d="M97.1497 26.2434C97.7026 26.2434 98.2382 26.312 98.7566 26.4462C99.272 26.5833 99.7558 26.7747 100.208 27.0233C100.66 27.2718 101.075 27.5689 101.455 27.9117C101.835 28.2545 102.157 28.6344 102.425 29.0429L100.991 29.8227C100.792 29.5342 100.559 29.2685 100.286 29.0229C100.015 28.7801 99.7126 28.5715 99.3814 28.3973C99.0503 28.223 98.6932 28.0916 98.3189 27.9974C97.9416 27.9059 97.5529 27.8574 97.1497 27.8574C96.5306 27.8574 95.9518 27.9631 95.4076 28.1773C94.8662 28.3916 94.3911 28.6801 93.9822 29.0457C93.5733 29.4114 93.2508 29.8399 93.0146 30.3312C92.7785 30.8225 92.6604 31.3453 92.6604 31.9023C92.6604 32.4508 92.7785 32.9735 93.0146 33.4649C93.2508 33.9562 93.5733 34.3847 93.9822 34.7504C94.3911 35.116 94.8662 35.4045 95.4076 35.6188C95.9489 35.833 96.5306 35.9387 97.1497 35.9387C97.5586 35.9387 97.9503 35.8901 98.3304 35.7959C98.7105 35.7016 99.0647 35.5645 99.393 35.3874C99.7212 35.2103 100.024 35.0017 100.294 34.7589C100.565 34.5161 100.801 34.2476 101 33.9505L102.434 34.7218C102.172 35.1446 101.852 35.5302 101.481 35.8758C101.106 36.2244 100.695 36.5214 100.24 36.77C99.7846 37.0185 99.2951 37.2127 98.7739 37.347C98.2526 37.4841 97.7113 37.5498 97.1497 37.5498C95.4594 37.5498 94.0138 36.9985 92.8188 35.893C91.6295 34.7932 91.0334 33.462 91.0334 31.8995C91.0334 30.3483 91.6295 29.0143 92.8188 27.8974C94.0052 26.8004 95.4479 26.2434 97.1497 26.2434Z" fill="#1A2C4B"/>
<path d="M128.73 34.9132V22.4385H126.064V37.5613H141.306V34.9132H128.73Z" fill="#1A2C4B"/>
<path d="M161.898 35.1303L160.7 37.5613H158.88L164.495 26.2434H166.306L171.913 37.5613H170.102L168.904 35.1303H161.898ZM165.396 28.0659L162.701 33.5163H168.089L165.396 28.0659Z" fill="#1A2C4B"/>
<path d="M189.591 26.2434H197.735C198.178 26.2434 198.596 26.3291 198.99 26.5005C199.385 26.6719 199.73 26.9061 200.03 27.2032C200.329 27.5003 200.565 27.846 200.738 28.2345C200.911 28.6258 200.997 29.04 200.997 29.4799C200.997 30.4397 200.626 31.251 199.886 31.9109C200.626 32.5651 200.997 33.3678 200.997 34.3247C200.997 34.7703 200.911 35.1874 200.738 35.5788C200.565 35.9701 200.332 36.3129 200.038 36.6071C199.745 36.9014 199.396 37.1356 198.996 37.307C198.596 37.4784 198.175 37.5641 197.732 37.5641H189.588V26.2434H189.591ZM191.218 27.866V31.0939H197.735C197.956 31.0939 198.166 31.0511 198.365 30.9625C198.564 30.8768 198.737 30.7597 198.881 30.614C199.028 30.4683 199.143 30.2998 199.232 30.1027C199.318 29.9056 199.364 29.697 199.364 29.4771C199.364 29.2571 199.321 29.0514 199.232 28.8572C199.146 28.6629 199.028 28.4915 198.878 28.3459C198.728 28.1973 198.558 28.0802 198.362 27.9945C198.166 27.9088 197.959 27.8631 197.737 27.8631H191.218V27.866ZM197.735 32.7107H191.218V35.9473H197.735C197.956 35.9473 198.166 35.9044 198.365 35.8159C198.564 35.7302 198.737 35.613 198.881 35.4645C199.028 35.316 199.143 35.1446 199.232 34.9475C199.318 34.7504 199.364 34.5418 199.364 34.3219C199.364 34.1019 199.321 33.8962 199.232 33.702C199.146 33.5077 199.028 33.3363 198.878 33.1907C198.728 33.0421 198.558 32.925 198.362 32.8393C198.166 32.7536 197.956 32.7107 197.735 32.7107Z" fill="#1A2C4B"/>
</svg>
